# xmcd
#
# Track frame offsets: 
#        150
#        23752
#        39524
#        49874
#        65422
#        82099
#        100429
#        117671
#        132869
#        151196
#        171019
#        201266
#
# Disc length: 2899 seconds
#
# Revision: 0
# Processed by: cddbd v1.5.1PL2 Copyright (c) Steve Scherf et al.
# Submitted via: ExactAudioCopy v0.95a5
#
DISCID=a30b510c
DTITLE=Thom Pace - Not in compliance
DYEAR=2003
DGENRE=Country
TTITLE0=Who I am
TTITLE1=Not in compliance
TTITLE2=Yeh, right!
TTITLE3=Sons and daughters
TTITLE4=Down to hell
TTITLE5=Part of you
TTITLE6=America plays
TTITLE7=Class baby class
TTITLE8=Silver cloud
TTITLE9=Midnight school blues
TTITLE10=Wear the sun in your heart/Maybe (medley from "The life and t
TTITLE10=imes from Grizzly Adams")
TTITLE11=Dead guy
EXTD=
EXTT0=
EXTT1=
EXTT2=
EXTT3=
EXTT4=
EXTT5=
EXTT6=
EXTT7=
EXTT8=
EXTT9=
EXTT10=
EXTT11=
PLAYORDER=
